{"title":"Shooter (2007) 1080p BluRay {Dual Audio} {6Ch.} [Hindi DD 5.1 Or","uid":9711869,"size":2175860877,"categoryP":"video","categoryS":"hd___movies","magnet":"?xt=urn:btih:03170892283b002746cc0afeb91abe44262af7f2&amp;dn=Shooter+%282007%29+1080p+BluRay+%7BDual+Audio%7D+%7B6Ch.%7D+%5BHindi+DD+5.1+Or&amp;tr=udp%3A%2F%2Ftracker.openbittorrent.com%3A80&amp;tr=udp%3A%2F%2Fopen.demonii.com%3A1337&amp;tr=udp%3A%2F%2Ftracker.coppersurfer.tk%3A6969&amp;tr=udp%3A%2F%2Fexodus.desync.com%3A6969","seeders":0,"leechers":1,"uploader":"SaNRiM","files":-1,"time":1394120280,"description":"Storyline\nBob Lee Swagger, one of the world's great marksmen and the son of a Congressional Medal of Honoree, is a loner living in the Rockies. He's left the military, having been hung out to dry in a secret Ethiopian mission a few years before, when he's recruited by a lisping colonel to help find a way that the President of the US might be assassinated in one of three cities in the next two weeks. He does his work, but the shot is fired notwithstanding and Bob Lee is quickly the fall guy: wounded and hunted by thousands, he goes to ground and, aided by two unlikely allies, searches for the truth and for those who double-crossed him. All roads lead back to Ethiopia.\n\n\n\nTorrent Info\n\nGeneral\n\nUnique ID : 248876884232617689161932751069189063456 (0xBB3BF1C2F301A7B4981CAF388A654320)\nComplete name : Shooter (2007) 1080p BluRay {Dual Audio} {6Ch.} [Hindi DD 5.1 Original-English DD 5.1] ~SaNRiM~.mkv\nFormat : Matroska\nFormat version : Version 4 / Version 2\nFile size : 2.02 GiB\nDuration : 2h 5mn\nOverall bit rate : 2 301 Kbp\nEncoded date : UTC 2014-03-06 03:35:57\nWriting library : libebml v1.3.0 + libmatroska v1.4.1\n\n\nVideo\n\nID : 1\nFormat : AVC\nFormat/Info : Advanced Video Codec\nFormat profile : &lt;a class=&quot;__cf_email__&quot; href=&quot;/cdn-cgi/l/email-protection&quot; data-cfemail=&quot;afe7c6c8c7efe39b819f&quot;&gt;[email&amp;#160;protected]&lt;/a&gt;&lt;script cf-hash='f9e31' type=&quot;text/javascript&quot;&gt;\n/* &lt;![CDATA[ */!function(){try{var t=&quot;currentScript&quot;in document?document.currentScript:function(){for(var t=document.getElementsByTagName(&quot;script&quot;),e=t.length;e--;)if(t[e].getAttribute(&quot;cf-hash&quot;))return t[e]}();if(t&amp;&amp;t.previousSibling){var e,r,n,i,c=t.previousSibling,a=c.getAttribute(&quot;data-cfemail&quot;);if(a){for(e=&quot;&quot;,r=parseInt(a.substr(0,2),16),n=2;a.length-n;n+=2)i=parseInt(a.substr(n,2),16)^r,e+=String.fromCharCode(i);e=document.createTextNode(e),c.parentNode.replaceChild(e,c)}}}catch(u){}}();/* ]]&gt; */&lt;/script&gt;\nFormat settings, CABAC : Yes\nFormat settings, ReFrames : 5 frames\nCodec ID : V_MPEG4/ISO/AVC\nDuration : 2h 5mn\nBit rate : 1 404 Kbps\nWidth : 1 920 pixels\nHeight : 800 pixels\nDisplay aspect ratio : 2.40:1\nFrame rate mode : Constant\nFrame rate : 23.976 fps\nColor space : YUV\nChroma subsampling : 4:2:0\nBit depth : 8 bits\nScan type : Progressive\nBits/(Pixel*Frame) : 0.038\nStream size : 1.19 GiB (59%)\nTitle : ~SaNRiM~\nWriting library : x264 core 120 r2164 da19765\nLanguage : English\nDefault : Yes\nForced : No\n\n\nAudio #1\n\nID : 2\nFormat : AC-3\nFormat/Info : Audio Coding 3\nMode extension : CM (complete main)\nFormat settings, Endianness : Big\nCodec ID : A_AC3\nDuration : 2h 5mn\nBit rate mode : Constant\nBit rate : 448 Kbps\nChannel(s) : 6 channels\nChannel positions : Front: L C R, Side: L R, LFE\nSampling rate : 48.0 KHz\nBit depth : 16 bits\nCompression mode : Lossy\nDelay relative to video : 2s 550ms\nStream size : 403 MiB (19%)\nTitle : ~SaNRiM~\nLanguage : Hindi\nDefault : Yes\nForced : No\n\n\nAudio #2\n\nID : 3\nFormat : AC-3\nFormat/Info : Audio Coding 3\nMode extension : CM (complete main)\nFormat settings, Endianness : Big\nCodec ID : A_AC3\nDuration : 2h 5mn\nBit rate mode : Constant\nBit rate : 448 Kbps\nChannel(s) : 6 channels\nChannel positions : Front: L C R, Side: L R, LFE\nSampling rate : 48.0 KHz\nBit depth : 16 bits\nCompression mode : Lossy\nStream size : 403 MiB (19%)\nTitle : ~SaNRiM~\nLanguage : English\nDefault : No\nForced : No\n\n\n\nScreens\n &lt;a href=&quot;\nhttp://someimage.com/mtVHPa3&quot; rel=&quot;nofollow&quot; target=&quot;_NEW&quot;&gt;\nhttp://someimage.com/mtVHPa3&lt;/a&gt; &lt;a href=&quot;\nhttp://someimage.com/xxGwCKM&quot; rel=&quot;nofollow&quot; target=&quot;_NEW&quot;&gt;\nhttp://someimage.com/xxGwCKM&lt;/a&gt; &lt;a href=&quot;\nhttp://someimage.com/MAXyRES&quot; rel=&quot;nofollow&quot; target=&quot;_NEW&quot;&gt;\nhttp://someimage.com/MAXyRES&lt;/a&gt; &lt;a href=&quot;\nhttp://someimage.com/byLBYOX&quot; rel=&quot;nofollow&quot; target=&quot;_NEW&quot;&gt;\nhttp://someimage.com/byLBYOX&lt;/a&gt; &lt;a href=&quot;\nhttp://someimage.com/wyzFE9W&quot; rel=&quot;nofollow&quot; target=&quot;_NEW&quot;&gt;\nhttp://someimage.com/wyzFE9W&lt;/a&gt; &lt;a href=&quot;\nhttp://someimage.com/hFlXtvf&quot; rel=&quot;nofollow&quot; target=&quot;_NEW&quot;&gt;\nhttp://someimage.com/hFlXtvf&lt;/a&gt; &lt;a href=&quot;\nhttp://someimage.com/bjHVzjL&quot; rel=&quot;nofollow&quot; target=&quot;_NEW&quot;&gt;\nhttp://someimage.com/bjHVzjL&lt;/a&gt; &lt;a href=&quot;\nhttp://someimage.com/13ysjWY&quot; rel=&quot;nofollow&quot; target=&quot;_NEW&quot;&gt;\nhttp://someimage.com/13ysjWY&lt;/a&gt; &lt;a href=&quot;\nhttp://someimage.com/ofI2XvF&quot; rel=&quot;nofollow&quot; target=&quot;_NEW&quot;&gt;\nhttp://someimage.com/ofI2XvF&lt;/a&gt; &lt;a href=&quot;\nhttp://someimage.com/QZFO3ko&quot; rel=&quot;nofollow&quot; target=&quot;_NEW&quot;&gt;\nhttp://someimage.com/QZFO3ko&lt;/a&gt; &lt;a href=&quot;\nhttp://someimage.com/15S8xGs&quot; rel=&quot;nofollow&quot; target=&quot;_NEW&quot;&gt;\nhttp://someimage.com/15S8xGs&lt;/a&gt; &lt;a href=&quot;\nhttp://someimage.com/Z13jvpa&quot; rel=&quot;nofollow&quot; target=&quot;_NEW&quot;&gt;\nhttp://someimage.com/Z13jvpa&lt;/a&gt; &lt;a href=&quot;\nhttp://someimage.com/nJuMJk3&quot; rel=&quot;nofollow&quot; target=&quot;_NEW&quot;&gt;\nhttp://someimage.com/nJuMJk3&lt;/a&gt; &lt;a href=&quot;\nhttp://someimage.com/TkSjOtt&quot; rel=&quot;nofollow&quot; target=&quot;_NEW&quot;&gt;\nhttp://someimage.com/TkSjOtt&lt;/a&gt; &lt;a href=&quot;\nhttp://someimage.com/uAbKbuu&quot; rel=&quot;nofollow&quot; target=&quot;_NEW&quot;&gt;\nhttp://someimage.com/uAbKbuu&lt;/a&gt; &lt;a href=&quot;\nhttp://someimage.com/IK545Yg&quot; rel=&quot;nofollow&quot; target=&quot;_NEW&quot;&gt;\nhttp://someimage.com/IK545Yg&lt;/a&gt; &lt;a href=&quot;\nhttp://someimage.com/KNf3M5K&quot; rel=&quot;nofollow&quot; target=&quot;_NEW&quot;&gt;\nhttp://someimage.com/KNf3M5K&lt;/a&gt; &lt;a href=&quot;\nhttp://someimage.com/JgjmbG2&quot; rel=&quot;nofollow&quot; target=&quot;_NEW&quot;&gt;\nhttp://someimage.com/JgjmbG2&lt;/a&gt; &lt;a href=&quot;\nhttp://someimage.com/7u0451y&quot; rel=&quot;nofollow&quot; target=&quot;_NEW&quot;&gt;\nhttp://someimage.com/7u0451y&lt;/a&gt; &lt;a href=&quot;\nhttp://someimage.com/tHwHfdY&quot; rel=&quot;nofollow&quot; target=&quot;_NEW&quot;&gt;\nhttp://someimage.com/tHwHfdY&lt;/a&gt;\n\n\n                   A BIG THANKS TO HEM FOR AUDIO\n\n\n\n                  If you like my work please comment\n                          Any request? Just PM me\n                       Please seed long after download\n                         Thank you &amp; enjoy the best\n                                 ~SaNRiM~","torrent":{"xt":"urn:btih:03170892283b002746cc0afeb91abe44262af7f2","amp;dn":"Shooter+%282007%29+1080p+BluRay+%7BDual+Audio%7D+%7B6Ch.%7D+%5BHindi+DD+5.1+Or","amp;tr":["udp%3A%2F%2Ftracker.openbittorrent.com%3A80","udp%3A%2F%2Fopen.demonii.com%3A1337","udp%3A%2F%2Ftracker.coppersurfer.tk%3A6969","udp%3A%2F%2Fexodus.desync.com%3A6969"],"infoHash":"03170892283b002746cc0afeb91abe44262af7f2","infoHashBuffer":{"type":"Buffer","data":[3,23,8,146,40,59,0,39,70,204,10,254,185,26,190,68,38,42,247,242]},"announce":[],"urlList":[]}}